<svg xmlns="http://www.w3.org/2000/svg">
    <symbol id="cross" viewBox="0 0 14 14" fill="none">
        <path
            d="M12.8532 11.5274C13.0293 11.7035 13.1283 11.9424 13.1283 12.1915C13.1283 12.4405 13.0293 12.6794 12.8532 12.8555C12.6771 13.0317 12.4382 13.1306 12.1891 13.1306C11.9401 13.1306 11.7012 13.0317 11.5251 12.8555L6.56491 7.89381L1.60319 12.854C1.42707 13.0301 1.1882 13.129 0.939126 13.129C0.690054 13.129 0.451184 13.0301 0.275064 12.854C0.0989435 12.6778 3.71146e-09 12.439 0 12.1899C-3.71146e-09 11.9408 0.0989435 11.702 0.275064 11.5258L5.23678 6.56569L0.276626 1.60397C0.100506 1.42785 0.00156253 1.18898 0.00156254 0.939907C0.00156254 0.690836 0.100506 0.451965 0.276626 0.275845C0.452746 0.0997246 0.691617 0.000781121 0.940688 0.000781119C1.18976 0.000781116 1.42863 0.0997246 1.60475 0.275845L6.56491 5.23756L11.5266 0.275063C11.7027 0.0989432 11.9416 -4.14954e-09 12.1907 0C12.4398 4.14954e-09 12.6786 0.0989432 12.8547 0.275063C13.0309 0.451184 13.1298 0.690054 13.1298 0.939126C13.1298 1.1882 13.0309 1.42707 12.8547 1.60319L7.89303 6.56569L12.8532 11.5274Z"
            fill="white" />
    </symbol>

    <symbol id="burger" viewBox="0 0 19 15" fill="none">
        <path
            d="M18.75 7.125C18.75 7.42337 18.6315 7.70952 18.4205 7.92049C18.2095 8.13147 17.9234 8.25 17.625 8.25H1.125C0.826631 8.25 0.540483 8.13147 0.329505 7.92049C0.118526 7.70952 0 7.42337 0 7.125C0 6.82663 0.118526 6.54048 0.329505 6.3295C0.540483 6.11853 0.826631 6 1.125 6H17.625C17.9234 6 18.2095 6.11853 18.4205 6.3295C18.6315 6.54048 18.75 6.82663 18.75 7.125ZM1.125 2.25H17.625C17.9234 2.25 18.2095 2.13147 18.4205 1.9205C18.6315 1.70952 18.75 1.42337 18.75 1.125C18.75 0.826631 18.6315 0.540483 18.4205 0.329505C18.2095 0.118526 17.9234 0 17.625 0H1.125C0.826631 0 0.540483 0.118526 0.329505 0.329505C0.118526 0.540483 0 0.826631 0 1.125C0 1.42337 0.118526 1.70952 0.329505 1.9205C0.540483 2.13147 0.826631 2.25 1.125 2.25ZM17.625 12H1.125C0.826631 12 0.540483 12.1185 0.329505 12.3295C0.118526 12.5405 0 12.8266 0 13.125C0 13.4234 0.118526 13.7095 0.329505 13.9205C0.540483 14.1315 0.826631 14.25 1.125 14.25H17.625C17.9234 14.25 18.2095 14.1315 18.4205 13.9205C18.6315 13.7095 18.75 13.4234 18.75 13.125C18.75 12.8266 18.6315 12.5405 18.4205 12.3295C18.2095 12.1185 17.9234 12 17.625 12Z"
            fill="black" />
    </symbol>
    <symbol id="search" viewBox="0 0 21 21" fill="none">
        <path
            d="M19.9399 18.348L15.4877 13.8939C16.8226 12.1544 17.4458 9.97216 17.2309 7.78998C17.0161 5.60781 15.9792 3.58907 14.3306 2.14328C12.6821 0.697486 10.5453 -0.0670986 8.35376 0.00462578C6.16221 0.0763502 4.07999 0.979013 2.5295 2.5295C0.979013 4.07999 0.0763502 6.16221 0.00462578 8.35376C-0.0670986 10.5453 0.697486 12.6821 2.14328 14.3306C3.58907 15.9792 5.60781 17.0161 7.78998 17.2309C9.97216 17.4458 12.1544 16.8226 13.8939 15.4877L18.3499 19.9445C18.4545 20.0492 18.5787 20.1322 18.7155 20.1888C18.8522 20.2455 18.9987 20.2746 19.1467 20.2746C19.2947 20.2746 19.4413 20.2455 19.578 20.1888C19.7147 20.1322 19.839 20.0492 19.9436 19.9445C20.0482 19.8399 20.1313 19.7157 20.1879 19.5789C20.2445 19.4422 20.2737 19.2957 20.2737 19.1477C20.2737 18.9997 20.2445 18.8531 20.1879 18.7164C20.1313 18.5797 20.0482 18.4554 19.9436 18.3508L19.9399 18.348ZM2.26891 8.64392C2.26891 7.38306 2.6428 6.15052 3.3433 5.10215C4.04379 4.05379 5.03943 3.23669 6.20431 2.75418C7.36919 2.27167 8.65099 2.14543 9.88762 2.39141C11.1242 2.63739 12.2602 3.24455 13.1517 4.13611C14.0433 5.02767 14.6504 6.16359 14.8964 7.40021C15.1424 8.63684 15.0162 9.91864 14.5336 11.0835C14.0511 12.2484 13.234 13.244 12.1857 13.9445C11.1373 14.645 9.90477 15.0189 8.64392 15.0189C6.95369 15.0172 5.3332 14.345 4.13803 13.1498C2.94286 11.9546 2.27065 10.3341 2.26891 8.64392Z"
            fill="black" fill-opacity="0.4" />
    </symbol>
    <symbol id="arrow-down" viewBox="0 0 16 16" fill="none">
        <path
            d="M13.5306 6.53063L8.5306 11.5306C8.46092 11.6005 8.37813 11.656 8.28696 11.6939C8.1958 11.7317 8.09806 11.7512 7.99935 11.7512C7.90064 11.7512 7.8029 11.7317 7.71173 11.6939C7.62057 11.656 7.53778 11.6005 7.4681 11.5306L2.4681 6.53063C2.3272 6.38973 2.24805 6.19864 2.24805 5.99938C2.24805 5.80012 2.3272 5.60902 2.4681 5.46813C2.60899 5.32723 2.80009 5.24808 2.99935 5.24808C3.19861 5.24808 3.3897 5.32723 3.5306 5.46813L7.99997 9.9375L12.4693 5.4675C12.6102 5.32661 12.8013 5.24745 13.0006 5.24745C13.1999 5.24745 13.391 5.32661 13.5318 5.4675C13.6727 5.6084 13.7519 5.7995 13.7519 5.99875C13.7519 6.19801 13.6727 6.38911 13.5318 6.53L13.5306 6.53063Z"
            fill="black" />
    </symbol>
    <symbol id="cart" viewBox="0 0 23 21" fill="none">
        <path
            d="M9.375 18.375C9.375 18.7458 9.26503 19.1084 9.059 19.4167C8.85298 19.725 8.56014 19.9654 8.21753 20.1073C7.87492 20.2492 7.49792 20.2863 7.1342 20.214C6.77049 20.1416 6.4364 19.963 6.17417 19.7008C5.91195 19.4386 5.73337 19.1045 5.66103 18.7408C5.58868 18.3771 5.62581 18.0001 5.76773 17.6575C5.90964 17.3149 6.14996 17.022 6.45831 16.816C6.76665 16.61 7.12916 16.5 7.5 16.5C7.99728 16.5 8.47419 16.6975 8.82582 17.0492C9.17745 17.4008 9.375 17.8777 9.375 18.375ZM17.25 16.5C16.8792 16.5 16.5166 16.61 16.2083 16.816C15.9 17.022 15.6596 17.3149 15.5177 17.6575C15.3758 18.0001 15.3387 18.3771 15.411 18.7408C15.4834 19.1045 15.662 19.4386 15.9242 19.7008C16.1864 19.963 16.5205 20.1416 16.8842 20.214C17.2479 20.2863 17.6249 20.2492 17.9675 20.1073C18.3101 19.9654 18.603 19.725 18.809 19.4167C19.015 19.1084 19.125 18.7458 19.125 18.375C19.125 17.8777 18.9275 17.4008 18.5758 17.0492C18.2242 16.6975 17.7473 16.5 17.25 16.5ZM22.0753 5.20594L19.5169 13.5216C19.3535 14.0593 19.0211 14.5301 18.569 14.864C18.1169 15.1979 17.5692 15.3771 17.0072 15.375H7.77469C7.2046 15.3732 6.65046 15.1866 6.1953 14.8433C5.74015 14.5001 5.40848 14.0186 5.25 13.4709L2.04469 2.25H1.125C0.826631 2.25 0.540483 2.13147 0.329505 1.9205C0.118526 1.70952 0 1.42337 0 1.125C0 0.826631 0.118526 0.540483 0.329505 0.329505C0.540483 0.118526 0.826631 0 1.125 0H2.32687C2.73407 0.00125797 3.12988 0.134515 3.45493 0.379779C3.77998 0.625044 4.01674 0.969093 4.12969 1.36031L4.81312 3.75H21C21.1761 3.74999 21.3497 3.7913 21.5069 3.87061C21.664 3.94992 21.8004 4.06501 21.905 4.20664C22.0096 4.34826 22.0795 4.51246 22.1091 4.68602C22.1387 4.85958 22.1271 5.03766 22.0753 5.20594ZM19.4766 6H5.45531L7.41375 12.8531C7.43617 12.9315 7.48354 13.0005 7.54867 13.0495C7.6138 13.0986 7.69315 13.1251 7.77469 13.125H17.0072C17.0875 13.1252 17.1656 13.0996 17.2303 13.052C17.2949 13.0044 17.3426 12.9373 17.3662 12.8606L19.4766 6Z"
            fill="black" />
    </symbol>
    <symbol id="user" viewBox="0 0 21 21" fill="none">
        <path
            d="M10.125 0C8.12247 0 6.1649 0.593821 4.49986 1.70637C2.83481 2.81892 1.53706 4.40023 0.770724 6.25033C0.00438702 8.10043 -0.196122 10.1362 0.194554 12.1003C0.585229 14.0643 1.54954 15.8685 2.96555 17.2845C4.38156 18.7005 6.18566 19.6648 8.14971 20.0555C10.1138 20.4461 12.1496 20.2456 13.9997 19.4793C15.8498 18.7129 17.4311 17.4152 18.5436 15.7501C19.6562 14.0851 20.25 12.1275 20.25 10.125C20.247 7.4406 19.1793 4.86699 17.2812 2.96883C15.383 1.07067 12.8094 0.00297771 10.125 0ZM5.58469 16.5534C6.10695 15.8393 6.79028 15.2585 7.57918 14.8581C8.36808 14.4577 9.24031 14.249 10.125 14.249C11.0097 14.249 11.8819 14.4577 12.6708 14.8581C13.4597 15.2585 14.1431 15.8393 14.6653 16.5534C13.3384 17.4945 11.7518 18 10.125 18C8.49823 18 6.91165 17.4945 5.58469 16.5534ZM7.5 9.375C7.5 8.85582 7.65396 8.34831 7.9424 7.91663C8.23083 7.48495 8.6408 7.1485 9.12046 6.94982C9.60012 6.75114 10.1279 6.69915 10.6371 6.80044C11.1463 6.90172 11.614 7.15173 11.9812 7.51884C12.3483 7.88596 12.5983 8.35369 12.6996 8.86289C12.8009 9.37209 12.7489 9.89989 12.5502 10.3795C12.3515 10.8592 12.0151 11.2692 11.5834 11.5576C11.1517 11.846 10.6442 12 10.125 12C9.42881 12 8.76113 11.7234 8.26885 11.2312C7.77657 10.7389 7.5 10.0712 7.5 9.375ZM16.3125 14.9944C15.5833 14.0669 14.6539 13.3164 13.5938 12.7987C14.2694 12.1146 14.7276 11.2458 14.9108 10.3019C15.0939 9.35788 14.9938 8.38083 14.623 7.49361C14.2523 6.6064 13.6274 5.84864 12.827 5.31568C12.0267 4.78271 11.0866 4.49834 10.125 4.49834C9.16343 4.49834 8.22333 4.78271 7.42297 5.31568C6.62262 5.84864 5.99775 6.6064 5.62698 7.49361C5.25621 8.38083 5.1561 9.35788 5.33924 10.3019C5.52239 11.2458 5.98061 12.1146 6.65625 12.7987C5.5961 13.3164 4.66668 14.0669 3.9375 14.9944C3.02161 13.8333 2.45114 12.4379 2.2914 10.9677C2.13165 9.49754 2.3891 8.01211 3.03425 6.68144C3.67941 5.35078 4.6862 4.22866 5.93939 3.44355C7.19257 2.65843 8.6415 2.24203 10.1203 2.24203C11.5991 2.24203 13.0481 2.65843 14.3012 3.44355C15.5544 4.22866 16.5612 5.35078 17.2064 6.68144C17.8515 8.01211 18.109 9.49754 17.9492 10.9677C17.7895 12.4379 17.219 13.8333 16.3031 14.9944H16.3125Z"
            fill="black" />
    </symbol>
    <symbol id="sparkle-small" viewBox="0 0 56 56" fill="none">
        <path
            d="M28 0C28.9506 15.0527 40.9472 27.0495 56 28C40.9472 28.9506 28.9506 40.9472 28 56C27.0495 40.9472 15.0527 28.9506 0 28C15.0527 27.0495 27.0495 15.0527 28 0Z"
            fill="black" />
    </symbol>
    <symbol id="sparkle-big" viewBox="0 0 104 104" fill="none">
        <path
            d="M52 0C53.7654 27.955 76.0448 50.2347 104 52C76.0448 53.7654 53.7654 76.0448 52 104C50.2347 76.0448 27.955 53.7654 0 52C27.955 50.2347 50.2347 27.955 52 0Z"
            fill="black" />
    </symbol>
    <symbol id="star" viewBox="0 0 18 17" fill="none">
        <path
            d="M8.79255 0L11.4118 5.63991L17.585 6.38809L13.0305 10.6219L14.2266 16.7243L8.79255 13.701L3.35851 16.7243L4.55458 10.6219L8.67844e-05 6.38809L6.17334 5.63991L8.79255 0Z"
            fill="#FFC633" />
    </symbol>
    <symbol id="half-star" viewBox="0 0 9 17" fill="none">
        <path d="M3.35842 16.7243L8.79246 13.701V0L6.17325 5.63991L0 6.38809L4.55449 10.6219L3.35842 16.7243Z"
            fill="#FFC633" />
    </symbol>
    <symbol id="done" viewBox="0 0 24 24" fill="none">
        <path
            d="M12 2.25C10.0716 2.25 8.18657 2.82183 6.58319 3.89317C4.97982 4.96451 3.73013 6.48726 2.99218 8.26884C2.25422 10.0504 2.06114 12.0108 2.43735 13.9021C2.81355 15.7934 3.74215 17.5307 5.10571 18.8943C6.46928 20.2579 8.20656 21.1865 10.0979 21.5627C11.9892 21.9389 13.9496 21.7458 15.7312 21.0078C17.5127 20.2699 19.0355 19.0202 20.1068 17.4168C21.1782 15.8134 21.75 13.9284 21.75 12C21.7473 9.41498 20.7192 6.93661 18.8913 5.10872C17.0634 3.28084 14.585 2.25273 12 2.25ZM16.2806 10.2806L11.0306 15.5306C10.961 15.6004 10.8783 15.6557 10.7872 15.6934C10.6962 15.7312 10.5986 15.7506 10.5 15.7506C10.4014 15.7506 10.3038 15.7312 10.2128 15.6934C10.1218 15.6557 10.039 15.6004 9.96938 15.5306L7.71938 13.2806C7.57865 13.1399 7.49959 12.949 7.49959 12.75C7.49959 12.551 7.57865 12.3601 7.71938 12.2194C7.86011 12.0786 8.05098 11.9996 8.25 11.9996C8.44903 11.9996 8.6399 12.0786 8.78063 12.2194L10.5 13.9397L15.2194 9.21937C15.2891 9.14969 15.3718 9.09442 15.4628 9.0567C15.5539 9.01899 15.6515 8.99958 15.75 8.99958C15.8486 8.99958 15.9461 9.01899 16.0372 9.0567C16.1282 9.09442 16.2109 9.14969 16.2806 9.21937C16.3503 9.28906 16.4056 9.37178 16.4433 9.46283C16.481 9.55387 16.5004 9.65145 16.5004 9.75C16.5004 9.84855 16.481 9.94613 16.4433 10.0372C16.4056 10.1282 16.3503 10.2109 16.2806 10.2806Z"
            fill="#01AB31" />
    </symbol>
    <symbol id="arrow-left" viewBox="0 0 19 16" fill="none">
        <path
            d="M7.08089 0.332033L0.330892 7.08203C0.226013 7.18655 0.142797 7.31074 0.0860175 7.44749C0.0292357 7.58423 5.62635e-06 7.73084 5.62811e-06 7.87891C5.62988e-06 8.02697 0.0292357 8.17358 0.0860175 8.31033C0.142797 8.44708 0.226013 8.57127 0.330892 8.67578L7.08089 15.4258C7.29224 15.6371 7.57888 15.7559 7.87777 15.7559C8.17665 15.7559 8.4633 15.6371 8.67464 15.4258C8.88599 15.2144 9.00472 14.9278 9.00472 14.6289C9.00472 14.33 8.88599 14.0434 8.67464 13.832L3.84558 9.00297L17.6268 9.00297C17.9252 9.00297 18.2113 8.88444 18.4223 8.67347C18.6333 8.46249 18.7518 8.17634 18.7518 7.87797C18.7518 7.5796 18.6333 7.29345 18.4223 7.08248C18.2113 6.8715 17.9252 6.75297 17.6268 6.75297L3.84558 6.75297L8.67558 1.92391C8.88693 1.71256 9.00566 1.42592 9.00566 1.12703C9.00566 0.828148 8.88693 0.541504 8.67558 0.330159C8.46424 0.118815 8.17759 8.02347e-05 7.87871 8.02383e-05C7.57982 8.02419e-05 7.29318 0.118815 7.08183 0.330159L7.08089 0.332033Z"
            fill="black" />
    </symbol>
    <symbol id="arrow-right" viewBox="0 0 19 16" fill="none">
        <path
            d="M11.6709 0.332033L18.4209 7.08203C18.5258 7.18655 18.609 7.31074 18.6658 7.44749C18.7226 7.58423 18.7518 7.73084 18.7518 7.87891C18.7518 8.02697 18.7226 8.17358 18.6658 8.31033C18.609 8.44708 18.5258 8.57127 18.4209 8.67578L11.6709 15.4258C11.4596 15.6371 11.1729 15.7559 10.8741 15.7559C10.5752 15.7559 10.2885 15.6371 10.0772 15.4258C9.86584 15.2144 9.74711 14.9278 9.74711 14.6289C9.74711 14.33 9.86584 14.0434 10.0772 13.832L14.9063 9.00297L1.125 9.00297C0.826632 9.00297 0.540483 8.88444 0.329505 8.67347C0.118527 8.46249 9.03849e-08 8.17634 9.39429e-08 7.87797C9.75009e-08 7.5796 0.118527 7.29345 0.329505 7.08248C0.540483 6.8715 0.826632 6.75297 1.125 6.75297L14.9063 6.75297L10.0763 1.92391C9.86491 1.71256 9.74617 1.42592 9.74617 1.12703C9.74617 0.828148 9.86491 0.541504 10.0763 0.330159C10.2876 0.118815 10.5742 8.02347e-05 10.8731 8.02383e-05C11.172 8.02419e-05 11.4587 0.118815 11.67 0.330159L11.6709 0.332033Z"
            fill="black" />
    </symbol>
    <symbol id="mail" viewBox="0 0 24 24" fill="none">
        <path
            d="M21 4.125H3C2.70163 4.125 2.41548 4.24353 2.2045 4.4545C1.99353 4.66548 1.875 4.95163 1.875 5.25V18C1.875 18.4973 2.07254 18.9742 2.42417 19.3258C2.77581 19.6775 3.25272 19.875 3.75 19.875H20.25C20.7473 19.875 21.2242 19.6775 21.5758 19.3258C21.9275 18.9742 22.125 18.4973 22.125 18V5.25C22.125 4.95163 22.0065 4.66548 21.7955 4.4545C21.5845 4.24353 21.2984 4.125 21 4.125ZM12 11.9738L5.89219 6.375H18.1078L12 11.9738ZM8.69906 12L4.125 16.1925V7.8075L8.69906 12ZM10.3641 13.5262L11.2397 14.3297C11.4472 14.52 11.7185 14.6255 12 14.6255C12.2815 14.6255 12.5528 14.52 12.7603 14.3297L13.6359 13.5262L18.1078 17.625H5.89219L10.3641 13.5262ZM15.3009 12L19.875 7.8075V16.1925L15.3009 12Z"
            fill="black" fill-opacity="0.4" />
    </symbol>
</svg>